<svg width="227.4" height="85.33797075764289" viewBox="0 0 410.3636363636364 154"
    class="css-1j8o68f">
    <!-- <defs id="SvgjsDefs1678"></defs>
    <g id="SvgjsG1679" featurekey="symbolContainer" transform="matrix(1,0,0,1,0,0)" fill="#000000">
        <rect width="104" height="154" rx="8"></rect>
    </g>
    <g id="SvgjsG1680" featurekey="symbolFeature-0"
        transform="matrix(1.4518922773735452,0,0,1.4518922773735452,-22.48393300284559,4.03385766776732)"
        fill="#ffffff">
        <g xmlns="http://www.w3.org/2000/svg">
            <path fill="#ffffff"
                d="M62.912,24.112V35.79l-3.929,3.929v-22.28h-2.7v24.98l-3.758,3.758V7.553h-2.7v38.623l-3.757-3.758v-24.98   h-2.7v22.28l-3.929-3.929V24.112h-2.7v30.843h0.033l-0.033,0.033l13.086,13.086v12.33h2.7v-12.33l13.087-13.086l-0.033-0.033h0.033   V24.112H62.912z M49.825,49.995v5.22L39.439,44.828v-5.221L49.825,49.995z M39.439,53.871v-5.225l10.386,10.387v5.223   L39.439,53.871z M62.912,53.871L52.525,64.256v-5.223l10.387-10.387V53.871z M62.912,44.828L52.525,55.215v-5.22l10.387-10.388   V44.828z"></path>
            <g>
                <g>
                    <rect x="70.22" y="40.775" fill="#ffffff" width="2.7" height="30.844"></rect>
                </g>
                <g>
                    <rect x="59.883" y="65.705"
                        transform="matrix(0.7071 0.7071 -0.7071 0.7071 75.2993 -19.5366)"
                        fill="#ffffff" width="2.699" height="30.842"></rect>
                </g>
                <g>
                    <rect x="29.432" y="40.72" fill="#ffffff" width="2.699" height="30.842"></rect>
                </g>
                <g>
                    <rect x="25.698" y="79.776"
                        transform="matrix(0.7071 0.7071 -0.7071 0.7071 69.4081 -5.314)"
                        fill="#ffffff" width="30.842" height="2.699"></rect>
                </g>
            </g>
        </g>
    </g> -->
    <g id="SvgjsG1681" featurekey="nameFeature-0"
        transform="matrix(1.7422950153012398,0,0,1.7422950153012398,121.14263599213194,27.531672173174055)"
        fill="#000000">
        <path
            d="M14.52 40.4 c-1.36 0 -2.28 -0.76 -2.8 -2 l-9.8 -23.04 c-0.16 -0.36 -0.28 -0.72 -0.28 -1.16 c0 -1.32 1.08 -2.4 2.48 -2.4 c1.28 0 2.12 0.72 2.52 1.76 l8.08 20.2 l8.2 -20.36 c0.32 -0.84 1.2 -1.6 2.36 -1.6 c1.36 0 2.44 1.04 2.44 2.36 c0 0.36 -0.12 0.76 -0.24 1.04 l-9.84 23.2 c-0.52 1.24 -1.44 2 -2.84 2 l-0.28 0 z M31.48 13.440000000000001 l0 -0.24 c0 -1.44 1.2 -2.36 2.76 -2.36 s2.76 0.92 2.76 2.36 l0 0.24 c0 1.44 -1.2 2.4 -2.76 2.4 s-2.76 -0.96 -2.76 -2.4 z M31.84 37.8 l0 -16.72 c0 -1.36 1.04 -2.44 2.4 -2.44 s2.44 1.08 2.44 2.44 l0 16.72 c0 1.36 -1.08 2.4 -2.44 2.4 c-1.32 0 -2.4 -1.04 -2.4 -2.4 z M43 37.8 l0 -16.72 c0 -1.36 1.04 -2.44 2.4 -2.44 s2.44 1.08 2.44 2.44 l0 2.16 c1.12 -2.64 3.2 -4.64 5.32 -4.64 c1.52 0 2.4 1 2.4 2.4 c0 1.28 -0.84 2.12 -1.92 2.32 c-3.44 0.6 -5.8 3.24 -5.8 8.24 l0 6.24 c0 1.32 -1.08 2.4 -2.44 2.4 c-1.32 0 -2.4 -1.04 -2.4 -2.4 z M66.60000000000001 40.36 c-3.56 0 -6.08 -1.56 -6.08 -6.2 l0 -11.12 l-0.8 0 c-1.16 0 -2.08 -0.92 -2.08 -2.08 s0.92 -2.08 2.08 -2.08 l0.8 0 l0 -3.6 c0 -1.32 1.08 -2.4 2.44 -2.4 c1.32 0 2.4 1.08 2.4 2.4 l0 3.6 l3.8 0 c1.16 0 2.12 0.92 2.12 2.08 s-0.96 2.08 -2.12 2.08 l-3.8 0 l0 10.36 c0 1.88 0.96 2.64 2.6 2.64 c0.56 0 1.04 -0.12 1.2 -0.12 c1.08 0 2.04 0.88 2.04 2 c0 0.88 -0.6 1.6 -1.28 1.88 c-1.04 0.36 -2.04 0.56 -3.32 0.56 z M94.72 21.08 l0 16.72 c0 1.32 -1.08 2.4 -2.44 2.4 c-1.32 0 -2.44 -1.04 -2.44 -2.4 l0 -1.08 c-1.36 2 -3.32 3.72 -6.6 3.72 c-4.76 0 -7.52 -3.2 -7.52 -8.12 l0 -11.24 c0 -1.36 1.08 -2.44 2.4 -2.44 c1.36 0 2.44 1.08 2.44 2.44 l0 9.8 c0 3.28 1.64 5.12 4.52 5.12 c2.8 0 4.76 -1.92 4.76 -5.2 l0 -9.72 c0 -1.36 1.08 -2.44 2.44 -2.44 c1.32 0 2.44 1.08 2.44 2.44 z M106.84 40.44 c-3.96 0 -7.48 -2.28 -7.48 -6.52 l0 -0.08 c0 -4.56 3.56 -6.8 8.72 -6.8 c2.36 0 4.04 0.36 5.68 0.88 l0 -0.52 c0 -3 -1.84 -4.6 -5.24 -4.6 c-1.84 0 -3.36 0.32 -4.68 0.84 c-0.28 0.08 -0.52 0.12 -0.76 0.12 c-1.12 0 -2.04 -0.88 -2.04 -2 c0 -0.88 0.6 -1.64 1.32 -1.92 c2 -0.76 4.04 -1.24 6.8 -1.24 c3.16 0 5.52 0.84 7 2.36 c1.56 1.52 2.28 3.76 2.28 6.52 l0 10.4 c0 1.32 -1.04 2.32 -2.36 2.32 c-1.4 0 -2.36 -0.96 -2.36 -2.04 l0 -0.8 c-1.44 1.72 -3.64 3.08 -6.88 3.08 z M108.2 36.92 c3.2 0 5.64 -1.84 5.64 -4.52 l0 -1.44 c-1.24 -0.48 -2.88 -0.84 -4.8 -0.84 c-3.12 0 -4.96 1.32 -4.96 3.52 l0 0.08 c0 2.04 1.8 3.2 4.12 3.2 z M124.52 37.8 l0 -24.8 c0 -1.32 1.04 -2.4 2.4 -2.4 s2.44 1.08 2.44 2.4 l0 24.8 c0 1.36 -1.08 2.4 -2.44 2.4 c-1.32 0 -2.4 -1.04 -2.4 -2.4 z M135.96 37.8 l0 -24.8 c0 -1.32 1.04 -2.4 2.4 -2.4 s2.44 1.08 2.44 2.4 l0 24.8 c0 1.36 -1.08 2.4 -2.44 2.4 c-1.32 0 -2.4 -1.04 -2.4 -2.4 z M150.96 46.519999999999996 c-1.36 0 -2.36 -0.2 -3.36 -0.6 c-0.72 -0.24 -1.52 -0.84 -1.52 -2 c0 -1.2 0.92 -2 1.96 -2 c0.4 0 0.64 0.08 0.88 0.16 c0.56 0.16 1 0.28 1.68 0.28 c1.44 0 2.2 -0.6 3 -2.24 l0.16 -0.44 l-7.84 -17.52 c-0.16 -0.36 -0.28 -0.84 -0.28 -1.16 c0 -1.36 1.04 -2.36 2.4 -2.36 c1.24 0 1.92 0.72 2.36 1.84 l5.68 14.04 l5.28 -14.04 c0.4 -1 1.08 -1.84 2.32 -1.84 c1.28 0 2.32 1 2.32 2.28 c0 0.4 -0.12 0.92 -0.2 1.16 l-7.72 18.52 c-1.8 4.32 -3.72 5.92 -7.12 5.92 z"></path>
    </g>
</svg>